<?xml version="1.0" encoding="UTF-8" standalone="no"?>
<svg
  xmlns="http://www.w3.org/2000/svg"
  xmlns:xlink="http://www.w3.org/1999/xlink"
  width="2.5in"
  height="3.5in"
  viewBox="-120 -168 240 336"
  preserveAspectRatio="none"
  class="card"
  face="1B"
>
  <defs>
    <pattern
      id="B1"
      width="80"
      height="80"
      patternUnits="userSpaceOnUse"
    >
      <g
        stroke="none"
        stroke-width="1"
        fill="none"
        fill-rule="evenodd"
      >
        <g transparent="50%" fill="#513434">
          <polygon points="0 61 0 62 62 0 61 0"></polygon>
          <polygon points="80 61 80 62 62 80 61 80"></polygon>

          <polygon points="0 67 0 68 68 0 67 0"></polygon>
          <polygon points="80 67 80 68 68 80 67 80"></polygon>

          <polygon points="0 73 0 74 74 0 73 0"></polygon>
          <polygon points="80 73 80 74 74 80 73 80"></polygon>

          <polygon points="0 80 80 0 79 0 0 79"></polygon>
          <polygon points="80 80 80 79 79 80"></polygon>

          <polygon points="6 80 80 6 80 5 5 80"></polygon>
          <polygon points="6 0 0 6 0 5 5 0"></polygon>
        
          <polygon points="12 80 80 12 80 11 11 80"></polygon>
          <polygon points="12 0 0 12 0 11 11 0"></polygon>

          <polygon points="18 80 80 18 80 17 17 80"></polygon>
          <polygon points="18 0 0 18 0 17 17 0"></polygon>

          <polygon points="24 80 80 24 80 23 23 80"></polygon>
          <polygon points="24 0 0 24 0 23 23 0"></polygon>

          <polygon points="43 80 80 43 80 42 42 80"></polygon>
          <polygon points="43 0 0 43 0 42 42 0"></polygon>
        </g>
        <g transparent="50%" fill="#51aa88">
          <polygon points="0 17 0 18 62 80 63 80"></polygon>
          <polygon points="80 17 80 18 62 0 63 0"></polygon>

          <polygon points="0 11 0 12 68 80 69 80"></polygon>
          <polygon points="80 11 80 12 68 0 69 0"></polygon>

          <polygon points="0 5 0 6 74 80 75 80"></polygon>
          <polygon points="80 5 80 6 74 0 75 0"></polygon>

          <polygon points="0 0 80 80 80 79 1 0"></polygon>
          <polygon points="0 80 1 80 0 79"></polygon>

          <polygon points="6 0 7 0 80 73 80 74"></polygon>
          <polygon points="6 80 7 80 0 73 0 74"></polygon>
          
          <polygon points="12 0 13 0 80 67 80 68"></polygon>
          <polygon points="12 80 13 80 0 67 0 68"></polygon>

          <polygon points="18 0 19 0 80 61 80 62"></polygon>
          <polygon points="18 80 19 80 0 61 0 62"></polygon>

          <polygon points="24 0 25 0 80 55 80 56"></polygon>
          <polygon points="24 80 25 80 0 55 0 56"></polygon>

          <polygon points="43 0 44 0 80 36 80 37"></polygon>
          <polygon points="43 80 44 80 0 36 0 37"></polygon>
        </g>
      </g>
    </pattern>
  </defs>
  <rect
    width="239"
    height="335"
    x="-119.5"
    y="-167.5"
    rx="12"
    ry="12"
    fill="#e5e5db"
    stroke="#51aa88"
  />
  <rect
    fill="url(#B1)"
    width="239"
    height="335"
    x="-119.5"
    y="-167.5"
    rx="12"
    ry="12"
  />
</svg>
